<svg xmlns="http://www.w3.org/2000/svg" width="1200" height="420" viewBox="0 0 1200 420">
  <defs>
    <style>
      .box{fill:#fff;stroke:#10b981;stroke-width:2;rx:10;ry:10}
      .t{font:600 14px system-ui,Segoe UI,Arial}
      .a{stroke:#334155;stroke-width:2;marker-end:url(#m)}
    </style>
    <marker id="m" markerWidth="10" markerHeight="10" refX="10" refY="3" orient="auto">
      <path d="M0,0 L10,3 L0,6 Z" fill="#334155"></path>
    </marker>
  </defs>
  <rect x="60" y="60" width="220" height="90" class="box"></rect><text x="115" y="110" class="t">Event Producers</text>
  <rect x="340" y="60" width="220" height="90" class="box"></rect><text x="400" y="110" class="t">Stream (Kafka)</text>
  <rect x="620" y="60" width="220" height="90" class="box"></rect><text x="670" y="110" class="t">ETL Jobs</text>
  <rect x="900" y="60" width="220" height="90" class="box"></rect><text x="940" y="110" class="t">Data Lake</text>

  <rect x="340" y="230" width="220" height="90" class="box"></rect><text x="388" y="280" class="t">Warehouse</text>
  <rect x="620" y="230" width="220" height="90" class="box"></rect><text x="660" y="280" class="t">BI / Dashboards</text>

  <line x1="280" y1="105" x2="340" y2="105" class="a"></line>
  <line x1="560" y1="105" x2="620" y2="105" class="a"></line>
  <line x1="840" y1="105" x2="900" y2="105" class="a"></line>
  <line x1="730" y1="150" x2="450" y2="230" class="a"></line>
  <line x1="560" y1="275" x2="620" y2="275" class="a"></line>
</svg>
